<?xml version="1.0" encoding="UTF-8"?>
<!-- Created with Inkscape (http://www.inkscape.org/) -->
<svg width="25in" height="10.5in" version="1.1" viewBox="0 0 635 266.7" xmlns="http://www.w3.org/2000/svg" xmlns:cc="http://creativecommons.org/ns#" xmlns:dc="http://purl.org/dc/elements/1.1/" xmlns:rdf="http://www.w3.org/1999/02/22-rdf-syntax-ns#" xmlns:xlink="http://www.w3.org/1999/xlink">
 <defs>
  <linearGradient id="linearGradient964">
   <stop stop-color="#fff" offset="0"/>
   <stop stop-color="#fff" stop-opacity="0" offset="1"/>
  </linearGradient>
  <linearGradient id="linearGradient1660">
   <stop stop-color="#dedede" offset="0"/>
   <stop stop-color="#dedede" stop-opacity="0" offset="1"/>
  </linearGradient>
  <linearGradient id="linearGradient1662" x1="442.23" x2="519.34" y1="55.851" y2="55.851" gradientTransform="translate(1.9e-6)" gradientUnits="userSpaceOnUse" xlink:href="#linearGradient1660"/>
  <linearGradient id="linearGradient1674" x1="442.23" x2="462.64" y1="55.851" y2="100.45" gradientTransform="rotate(-68.556 273.17 227.67)" gradientUnits="userSpaceOnUse" xlink:href="#linearGradient1660"/>
  <linearGradient id="linearGradient1694" x1="226.79" x2="287.26" y1="219.89" y2="219.89" gradientTransform="matrix(.3247 0 0 .60417 271.37 105.72)" gradientUnits="userSpaceOnUse">
   <stop stop-color="#c6c6c6" offset="0"/>
   <stop stop-color="#c6c6c6" stop-opacity="0" offset="1"/>
  </linearGradient>
  <linearGradient id="linearGradient1723" x1="253.24" x2="372.92" y1="127.85" y2="127.85" gradientTransform="matrix(.74217 0 0 .72917 149.2 88.155)" gradientUnits="userSpaceOnUse">
   <stop stop-color="#bcb8b8" offset="0"/>
   <stop stop-color="#bcb8b8" stop-opacity="0" offset="1"/>
  </linearGradient>
  <linearGradient id="linearGradient1733" x1="272.86" x2="393.98" y1="149.98" y2="149.98" gradientTransform="matrix(.74217 0 0 .72917 149.2 88.155)" gradientUnits="userSpaceOnUse">
   <stop stop-color="#d5d5d5" offset="0"/>
   <stop stop-color="#d5d5d5" stop-opacity="0" offset="1"/>
  </linearGradient>
  <linearGradient id="linearGradient930" x1="46.058" x2="130.85" y1="125.02" y2="125.02" gradientTransform="translate(69.548 30.238)" gradientUnits="userSpaceOnUse">
   <stop stop-color="#d2d2d2" offset="0"/>
   <stop stop-color="#d2d2d2" stop-opacity="0" offset="1"/>
  </linearGradient>
  <linearGradient id="linearGradient938" x1="97.386" x2="130.92" y1="104.21" y2="104.21" gradientTransform="translate(69.548 30.238)" gradientUnits="userSpaceOnUse">
   <stop stop-color="#e3dfdf" offset="0"/>
   <stop stop-color="#e3dfdf" stop-opacity="0" offset="1"/>
  </linearGradient>
  <linearGradient id="linearGradient956" x1="189.36" x2="221.83" y1="63.45" y2="75.21" gradientTransform="translate(69.548 30.238)" gradientUnits="userSpaceOnUse">
   <stop stop-color="#eaeaea" offset="0"/>
   <stop stop-color="#eaeaea" stop-opacity="0" offset="1"/>
  </linearGradient>
  <linearGradient id="linearGradient966" x1="483.22" x2="426.87" y1="83.262" y2="61.881" gradientTransform="translate(69.548 30.238)" gradientUnits="userSpaceOnUse" xlink:href="#linearGradient964"/>
  <linearGradient id="linearGradient1020" x1="-65.012" x2="588.13" y1="283.18" y2="219.51" gradientTransform="matrix(1.0836 0 0 1 75.238 30.238)" gradientUnits="userSpaceOnUse">
   <stop stop-color="#ccc" offset="0"/>
   <stop stop-color="#ccc" stop-opacity="0" offset="1"/>
  </linearGradient>
  <linearGradient id="linearGradient1047" x1="483.22" x2="426.87" y1="83.262" y2="61.881" gradientTransform="translate(182.94 108.86)" gradientUnits="userSpaceOnUse" xlink:href="#linearGradient964"/>
  <linearGradient id="linearGradient1059" x1="483.22" x2="426.87" y1="83.262" y2="61.881" gradientTransform="matrix(1.061 0 0 1.0459 199.66 30.754)" gradientUnits="userSpaceOnUse" xlink:href="#linearGradient964"/>
 </defs>
 <metadata>
  <rdf:RDF>
   <cc:Work rdf:about="">
    <dc:format>image/svg+xml</dc:format>
    <dc:type rdf:resource="http://purl.org/dc/dcmitype/StillImage"/>
    <dc:title/>
   </cc:Work>
  </rdf:RDF>
 </metadata>
 <g transform="translate(0,-30.3)">
  <rect x="1.5119" y="29.756" width="768.05" height="264.98" ry="3.1667" fill="#818181"/>
  <path d="m1.5119 210.82 342.41 86.179 343.23-97.518-63.076 98.274-280.98 0.75595-341.6 1.5119z" fill="url(#linearGradient1020)"/>
  <path d="m710.73 219.14-303.92 78.619h248.5zm-706.19 10.633v67.977c0.066807 3e-3 0.13306 9e-3 0.20081 9e-3h296.49z" fill="#fff" fill-opacity=".6749"/>
  <g>
   <rect x="345.01" y="206.6" width="19.637" height="63.941" ry="1.9351" fill="#848484"/>
   <rect x="345.01" y="206.6" width="19.637" height="63.941" ry="1.9351" fill="url(#linearGradient1694)"/>
   <rect x="115.66" y="104.23" width="51.405" height="41.577" ry="0" fill="#cfcfcf"/>
  </g>
  <g transform="translate(69.548 30.238)">
   <path d="m466.42 24.101-24.19 54.429 77.107 9.0714z" fill="#c0c0c0"/>
   <path d="m466.42 24.101-24.19 54.429 77.107 9.0714z" fill="url(#linearGradient1662)"/>
  </g>
  <g transform="translate(62.744 108.1)">
   <path d="m153.56-24.584 43.857 40.301 33.214-70.176z" fill="#c0c0c0"/>
   <path d="m154.34-26.629 41.817 42.414 36.633-68.453z" fill="url(#linearGradient1674)"/>
  </g>
  <g>
   <path d="m387.52 139.36a49.933 47.956 0 0 0-49.242 48.392 49.933 47.956 0 0 0 50.161 47.514 49.933 47.956 0 0 0 49.703-47.955l-8e-3 -0.8821a49.933 47.956 0 0 0-50.614-47.069zm3.1955 16.166a35.253 34.635 0 0 1 35.733 33.995l6e-3 0.63718a35.253 34.635 0 0 1-35.091 34.635 35.253 34.635 0 0 1-35.414-34.317 35.253 34.635 0 0 1 34.765-34.951z" fill="#999"/>
   <path d="m386.4 138.25a49.933 47.956 0 0 0-49.242 48.392 49.933 47.956 0 0 0 19.977 37.853 49.933 47.956 0 0 1-11.001-29.585 49.933 47.956 0 0 1 49.242-48.392 49.933 47.956 0 0 1 30.598 9.6236 49.933 47.956 0 0 0-39.575-17.892z" fill="#727272"/>
   <path d="m425.97 156.15a49.933 47.956 0 0 1 10.011 27.836l8e-3 0.88209a49.933 47.956 0 0 1-49.703 47.955 49.933 47.956 0 0 1-34.578-13.224 49.933 47.956 0 0 0 40.189 19.288 49.933 47.956 0 0 0 49.703-47.955l-8e-3 -0.88211a49.933 47.956 0 0 0-15.621-33.899z" fill="#a2a2a2"/>
   <path d="m386.4 138.25a49.933 47.956 0 0 0-49.242 48.392 49.933 47.956 0 0 0 19.977 37.853 49.933 47.956 0 0 1-11.001-29.585 49.933 47.956 0 0 1 49.242-48.392 49.933 47.956 0 0 1 30.598 9.6236 49.933 47.956 0 0 0-39.575-17.892z" fill="url(#linearGradient1723)"/>
   <path d="m425.97 156.15a49.933 47.956 0 0 1 10.011 27.836l8e-3 0.88209a49.933 47.956 0 0 1-49.703 47.955 49.933 47.956 0 0 1-34.578-13.224 49.933 47.956 0 0 0 40.189 19.288 49.933 47.956 0 0 0 49.703-47.955l-8e-3 -0.88211a49.933 47.956 0 0 0-15.621-33.899z" fill="url(#linearGradient1733)"/>
   <path d="m167.07 104.23 31.75 24.568 1.5119 35.908-33.262-18.899z" fill="url(#linearGradient938)"/>
   <path d="m115.66 145.81 38.932 17.765 45.735 1.1339-33.262-18.899z" fill="url(#linearGradient930)"/>
   <path d="m293.37 53.642 17.786 12.741-32.607 67.352-18.393-9.917z" fill="url(#linearGradient956)"/>
   <path d="m511.78 108.77-22.084-6.5707 25.123-50.247 21.152 2.3888z" fill="url(#linearGradient966)"/>
  </g>
  <g transform="translate(182.94 108.86)">
   <path d="m466.42 24.101-24.19 54.429 77.107 9.0714z" fill="#c0c0c0"/>
   <path d="m466.42 24.101-24.19 54.429 77.107 9.0714z" fill="url(#linearGradient1662)"/>
  </g>
  <path d="m625.17 187.39-22.084-6.5707 25.123-50.247 21.152 2.3888z" fill="url(#linearGradient1047)"/>
  <g transform="rotate(-58.431 683.61 85.17)">
   <g transform="matrix(1.061 0 0 1.0459 199.66 30.754)">
    <path d="m466.42 24.101-24.19 54.429 77.107 9.0714z" fill="#c0c0c0"/>
    <path d="m466.42 24.101-24.19 54.429 77.107 9.0714z" fill="url(#linearGradient1662)"/>
   </g>
   <path d="m668.85 112.89-23.431-6.8723 26.655-52.553 22.441 2.4984z" fill="url(#linearGradient1059)"/>
  </g>
 </g>
</svg>
